HIERARCHY
ROOT Pelvis
{
	OFFSET 0.000000 0.000000 0.000000
	CHANNELS 6 Xposition Yposition Zposition Xrotation Yrotation Zrotation
	JOINT LeftUpLeg_virtual
	{
		OFFSET 0.000000 0.000000 0.000000
		CHANNELS 3 Xrotation Yrotation Zrotation
		JOINT LeftUpLeg
		{
			OFFSET 18.735201 -5.666702 -4.541200
			CHANNELS 3 Xrotation Yrotation Zrotation
			JOINT LeftLeg
			{
				OFFSET -0.021200 -31.938179 0.493100
				CHANNELS 3 Xrotation Yrotation Zrotation
				JOINT LeftFoot
				{
					OFFSET 0.021200 -31.938179 -4.336299
					CHANNELS 3 Xrotation Yrotation Zrotation
					JOINT LeftToeBase
					{
						OFFSET 0.943001 -26.722000 15.023500
						CHANNELS 3 Xrotation Yrotation Zrotation
						End Site
						{
							OFFSET 0 0 0
						}
					}
				}
			}
		}
	}
	JOINT RightUpLeg_virtual
	{
		OFFSET 0.000000 0.000000 0.000000
		CHANNELS 3 Xrotation Yrotation Zrotation
		JOINT RightUpLeg
		{
			OFFSET -18.735201 -5.666702 -4.541200
			CHANNELS 3 Xrotation Yrotation Zrotation
			JOINT RightLeg
			{
				OFFSET 0.018946 -31.938133 0.493100
				CHANNELS 3 Xrotation Yrotation Zrotation
				JOINT RightFoot
				{
					OFFSET -0.018946 -31.938126 -4.336299
					CHANNELS 3 Xrotation Yrotation Zrotation
					JOINT RightToeBase
					{
						OFFSET -0.943001 -26.722004 15.023500
						CHANNELS 3 Xrotation Yrotation Zrotation
						End Site
						{
							OFFSET 0 0 0
						}
					}
				}
			}
		}
	}
	JOINT Hips_virtual
	{
		OFFSET 0.000000 0.000000 0.000000
		CHANNELS 3 Xrotation Yrotation Zrotation
		JOINT Hips
		{
			OFFSET -0.000000 -0.000000 -0.000000
			CHANNELS 3 Xrotation Yrotation Zrotation
			JOINT Spine
			{
				OFFSET 0.000000 10.199997 -0.299500
				CHANNELS 3 Xrotation Yrotation Zrotation
				JOINT Spine1
				{
					OFFSET 0.000000 11.900002 -1.516600
					CHANNELS 3 Xrotation Yrotation Zrotation
					JOINT Spine2
					{
						OFFSET 0.000000 13.600006 -2.842500
						CHANNELS 3 Xrotation Yrotation Zrotation
						JOINT Neck_virtual
						{
							OFFSET 0.000000 0.000000 0.000000
							CHANNELS 3 Xrotation Yrotation Zrotation
							JOINT Neck
							{
								OFFSET 0.000000 9.624100 -2.890100
								CHANNELS 3 Xrotation Yrotation Zrotation
								JOINT Head
								{
									OFFSET 0.000000 14.068802 -1.351900
									CHANNELS 3 Xrotation Yrotation Zrotation
									End Site
									{
										OFFSET 0 0 0
									}
								}
							}
						}
						JOINT LeftShoulder_virtual
						{
							OFFSET 0.000000 0.000000 0.000000
							CHANNELS 3 Xrotation Yrotation Zrotation
							JOINT LeftShoulder
							{
								OFFSET 15.263000 10.923401 -0.547700
								CHANNELS 3 Xrotation Yrotation Zrotation
								JOINT LeftArm
								{
									OFFSET 25.438599 -2.830597 -13.032500
									CHANNELS 3 Xrotation Yrotation Zrotation
									JOINT LeftForeArm
									{
										OFFSET 29.960503 0.000000 0.000000
										CHANNELS 3 Xrotation Yrotation Zrotation
										JOINT LeftHand
										{
											OFFSET 27.849251 0.000000 0.000000
											CHANNELS 3 Xrotation Yrotation Zrotation
											End Site
											{
												OFFSET 0 0 0
											}
										}
									}
								}
							}
						}
						JOINT RightShoulder_virtual
						{
							OFFSET 0.000000 0.000000 0.000000
							CHANNELS 3 Xrotation Yrotation Zrotation
							JOINT RightShoulder
							{
								OFFSET -15.263000 10.923401 -0.547700
								CHANNELS 3 Xrotation Yrotation Zrotation
								JOINT RightArm
								{
									OFFSET -25.438599 -2.830597 -13.032500
									CHANNELS 3 Xrotation Yrotation Zrotation
									JOINT RightForeArm
									{
										OFFSET -29.960503 0.000000 0.000000
										CHANNELS 3 Xrotation Yrotation Zrotation
										JOINT RightHand
										{
											OFFSET -27.849251 0.000000 0.000000
											CHANNELS 3 Xrotation Yrotation Zrotation
											End Site
											{
												OFFSET 0 0 0
											}
										}
									}
								}
							}
						}
					}
				}
			}
		}
	}
}
MOTION
Frames: 8
Frame Time: 0.03333333
-0.209290 86.465164 3.216825 0.000000 0.000000 0.000000 2.209580 -6.588657 -2.166637 -40.111970 9.116796 15.463483 44.922813 0.827321 1.128580 -6.986164 0.000506 -3.078523 0.000000 0.000000 0.000000 -0.922277 -24.012452 1.650301 -34.348383 -10.394521 -15.556251 41.710155 -0.054710 -4.990909 -11.578584 -0.943533 3.557611 0.000000 0.000000 0.000000 0.931729 -4.644470 -0.073608 -3.378216 -10.464106 -2.346966 4.222277 2.173881 0.182951 1.423081 1.365059 -0.358300 0.000000 0.000000 0.000000 2.261842 1.826003 -0.026047 -0.319900 0.396859 1.101395 0.000000 0.000000 0.000000 2.444923 1.780445 0.804922 1.235853 -5.815780 8.299225 -31.686706 -34.377011 -42.676924 3.984518 -75.859605 6.478007 0.000000 0.000000 0.000000 1.455029 0.399484 -1.242300 0.396768 8.853179 -1.641893 -22.000774 53.179662 26.839910 73.318611 87.624961 -74.924020 0.000000 0.000000 0.000000 
-0.332975 86.641731 2.370239 0.000000 0.000000 0.000000 1.765476 -6.471596 -2.495555 -40.534383 9.168582 15.132066 44.837248 0.520465 1.634741 -7.197872 -0.545434 -2.625248 0.000000 0.000000 0.000000 -1.065492 -25.344037 1.515993 -34.436297 -10.742744 -15.675977 41.704305 0.355817 -5.409566 -11.607544 -0.322697 3.086146 0.000000 0.000000 0.000000 -0.088254 -3.305389 -1.083934 0.107715 -9.097453 -1.973413 4.644818 1.438066 -0.432314 1.679758 1.278079 -0.367859 0.000000 0.000000 0.000000 2.957796 1.765964 -0.104801 -0.039465 0.475498 1.269382 0.000000 0.000000 0.000000 2.722972 1.772691 0.814035 2.214822 -5.253120 9.349905 -32.099635 -36.952341 -43.241723 8.048635 -77.086908 9.589016 0.000000 0.000000 0.000000 2.158973 -0.136888 -0.993040 1.570467 7.111868 -0.543064 -15.244426 54.505777 21.107538 73.502548 87.814929 -74.488964 0.000000 0.000000 0.000000 
-0.524277 86.461884 2.783262 0.000000 0.000000 0.000000 1.311717 -6.257812 -2.460955 -40.884423 9.094581 15.120569 45.158052 0.393925 1.803891 -7.121965 -0.732371 -2.534824 0.000000 0.000000 0.000000 -1.732264 -27.215830 1.370989 -35.273952 -11.107138 -15.814287 41.815873 0.342863 -5.880947 -11.514059 -0.050346 2.263723 0.000000 0.000000 0.000000 1.189735 -3.030115 -0.536844 -1.448692 -11.494831 -3.190282 6.569988 1.771047 -0.653230 1.852637 1.467330 0.095556 0.000000 0.000000 0.000000 3.620094 1.850592 0.065448 0.020204 0.321679 1.173456 0.000000 0.000000 0.000000 2.882759 2.419314 1.086941 2.405116 -6.532314 9.680454 -32.656149 -38.949072 -43.065070 7.723908 -76.387046 8.770818 0.000000 0.000000 0.000000 1.913494 -0.116002 -0.582837 1.461420 6.886925 0.208726 -13.843535 58.285870 18.678720 57.689164 87.024410 -59.864450 0.000000 0.000000 0.000000 
0.078981 86.335739 2.244394 0.000000 0.000000 0.000000 2.068551 -6.291324 -1.650404 -40.326444 8.961093 16.074418 45.481885 0.028861 2.226140 -7.014445 -1.308712 -2.226094 0.000000 0.000000 0.000000 -2.645479 -28.282329 1.474974 -36.237869 -11.352011 -15.421017 41.021208 0.251047 -5.793817 -11.844688 -0.204677 2.189623 0.000000 0.000000 0.000000 0.412941 -1.905707 -1.249929 -0.841034 -11.916820 -4.227730 5.519962 0.957301 -0.070555 2.250780 1.396923 -0.136933 0.000000 0.000000 0.000000 2.944558 1.747622 0.260608 0.020479 0.307200 1.230977 0.000000 0.000000 0.000000 3.072384 2.417545 1.139418 2.291394 -4.741634 11.090868 -32.172004 -40.014882 -43.402369 10.353340 -77.972606 10.411496 0.000000 0.000000 0.000000 1.652470 -0.411970 -0.318036 1.107448 4.841158 1.413211 -15.085226 56.704019 18.384509 84.999710 87.509504 -86.780682 0.000000 0.000000 0.000000 
0.126280 86.346741 4.172256 0.000000 0.000000 0.000000 1.445054 -7.598272 -2.453858 -40.566372 8.809986 14.986625 46.283274 0.195103 2.598918 -6.463772 -1.355192 -1.598279 0.000000 0.000000 0.000000 -2.813163 -29.385332 1.319792 -36.480857 -11.610012 -15.598945 40.205205 0.272780 -5.782618 -12.589820 -0.244236 2.197145 0.000000 0.000000 0.000000 1.560461 -0.156636 -1.282483 -4.677255 -12.379996 -2.712192 6.486464 1.782563 -0.405571 1.962635 1.613718 0.210263 0.000000 0.000000 0.000000 3.125430 1.976974 0.115108 0.112530 0.350100 1.165976 0.000000 0.000000 0.000000 2.864944 2.732295 1.166044 2.133943 -4.409178 11.146806 -34.249741 -40.516716 -44.087092 6.606188 -77.927356 6.297533 0.000000 0.000000 0.000000 1.397510 -0.295151 0.071468 1.281995 6.061243 1.407079 -17.586398 58.229610 18.083990 106.820955 87.715181 -108.716230 0.000000 0.000000 0.000000 
0.002939 86.829056 4.217892 0.000000 0.000000 0.000000 1.292230 -7.195976 -2.947439 -40.759485 9.057472 14.564446 46.309089 0.649720 2.875865 -6.518353 -1.050122 -0.920374 0.000000 0.000000 0.000000 -2.687061 -28.477958 1.540730 -36.286992 -11.431383 -15.298326 40.481753 0.618810 -5.723896 -12.396797 0.070270 2.522118 0.000000 0.000000 0.000000 -0.174241 -2.392818 -0.685799 -3.167483 -9.642227 -0.514871 5.581492 1.485481 -0.332201 2.584899 1.974585 0.201465 0.000000 0.000000 0.000000 2.333868 2.377707 0.417712 0.353561 0.303714 1.347508 0.000000 0.000000 0.000000 2.444249 2.891239 0.986306 2.556505 -5.582139 11.891528 -32.838207 -40.688523 -42.657308 10.624470 -77.403003 9.352582 0.000000 0.000000 0.000000 1.687926 -0.286354 0.224158 1.802079 5.963035 1.270218 -19.291017 60.641124 17.617814 52.282083 86.373985 -53.673399 0.000000 0.000000 0.000000 
0.530450 86.409531 3.981621 0.000000 0.000000 0.000000 0.722038 -7.453461 -3.382015 -41.654062 9.053718 14.279493 46.509528 0.958771 2.763531 -6.731460 -0.694408 -0.962075 0.000000 0.000000 0.000000 -3.127305 -29.193711 1.749172 -37.181443 -11.571064 -15.161562 41.741547 0.655151 -5.680545 -11.539815 0.150413 2.649613 0.000000 0.000000 0.000000 1.022987 -2.424339 0.026166 -4.220943 -12.660534 0.573778 5.211959 2.382424 -0.510032 2.927406 1.670574 0.073852 0.000000 0.000000 0.000000 2.336949 2.445123 0.317354 0.378499 0.225053 1.205675 0.000000 0.000000 0.000000 1.834347 2.998262 0.763078 2.116059 -7.370453 11.202003 -36.512631 -41.076440 -44.377877 6.554116 -79.088003 5.079303 0.000000 0.000000 0.000000 1.658751 -0.341939 0.280939 2.043435 5.350269 0.930903 -19.427218 61.675638 17.456963 31.097841 84.897155 -32.205097 0.000000 0.000000 0.000000 
0.766966 86.345222 2.902866 0.000000 0.000000 0.000000 0.985461 -7.551391 -3.566081 -41.198130 9.144191 13.994305 46.646712 1.184795 3.023505 -6.676224 -0.577027 -0.481132 0.000000 0.000000 0.000000 -3.094116 -28.948865 1.604709 -36.911223 -11.535169 -15.181175 43.455634 0.739248 -5.208730 -10.306533 0.126165 3.480688 0.000000 0.000000 0.000000 1.516186 -2.594388 0.016582 -4.766278 -12.391835 1.072278 5.359963 2.620802 0.028188 2.391958 1.827719 0.035435 0.000000 0.000000 0.000000 2.529874 2.722044 0.290994 0.392793 0.129644 1.280768 0.000000 0.000000 0.000000 1.864575 2.982665 0.709418 1.729928 -7.910703 11.857476 -36.470840 -41.656176 -42.799485 7.543381 -80.025099 6.349209 0.000000 0.000000 0.000000 1.833316 -0.185737 0.226776 1.599166 5.496334 0.678024 -23.310304 61.698192 17.228590 17.337706 84.767183 -19.745653 0.000000 0.000000 0.000000 
